<?xml version="1.0" encoding="UTF-8" standalone="no"?>
<!-- Created with Inkscape (http://www.inkscape.org/) -->

<svg
   width="210mm"
   height="297mm"
   viewBox="0 0 210 297"
   version="1.1"
   id="svg5"
   sodipodi:docname="Bjarki.svg"
   xml:space="preserve"
   inkscape:version="1.2.2 (732a01da63, 2022-12-09)"
   xmlns:inkscape="http://www.inkscape.org/namespaces/inkscape"
   xmlns:sodipodi="http://sodipodi.sourceforge.net/DTD/sodipodi-0.dtd"
   xmlns:xlink="http://www.w3.org/1999/xlink"
   xmlns="http://www.w3.org/2000/svg"
   xmlns:svg="http://www.w3.org/2000/svg"><sodipodi:namedview
     id="namedview7"
     pagecolor="#ffffff"
     bordercolor="#000000"
     borderopacity="0.25"
     inkscape:showpageshadow="2"
     inkscape:pageopacity="0.0"
     inkscape:pagecheckerboard="0"
     inkscape:deskcolor="#d1d1d1"
     inkscape:document-units="mm"
     showgrid="false"
     inkscape:zoom="0.69130191"
     inkscape:cx="778.96501"
     inkscape:cy="480.25327"
     inkscape:window-width="1920"
     inkscape:window-height="974"
     inkscape:window-x="-11"
     inkscape:window-y="-11"
     inkscape:window-maximized="1"
     inkscape:current-layer="layer1" /><defs
     id="defs2"><rect
       x="968.12598"
       y="623.73543"
       width="315.87421"
       height="203.50867"
       id="rect5498" /><rect
       x="296.98485"
       y="363.45288"
       width="100.24158"
       height="18.293215"
       id="rect37393" /><rect
       x="284.25692"
       y="603.16208"
       width="224.85996"
       height="30.405591"
       id="rect37179" /><rect
       x="343.51958"
       y="531.8192"
       width="81.426864"
       height="49.619495"
       id="rect34858" /><rect
       x="340.97499"
       y="539.45297"
       width="119.59571"
       height="49.619495"
       id="rect34798" /><rect
       x="312.98451"
       y="524.18544"
       width="146.3139"
       height="80.154569"
       id="rect34792" /><inkscape:path-effect
       effect="powerstroke"
       id="path-effect479"
       is_visible="true"
       lpeversion="1"
       offset_points="0,0.21730368"
       not_jump="false"
       sort_points="true"
       interpolator_type="CubicBezierJohan"
       interpolator_beta="0.2"
       start_linecap_type="zerowidth"
       linejoin_type="extrp_arc"
       miter_limit="4"
       scale_width="1"
       end_linecap_type="zerowidth" /><inkscape:path-effect
       effect="spiro"
       id="path-effect477"
       is_visible="true"
       lpeversion="1" /><inkscape:path-effect
       effect="bspline"
       id="path-effect465"
       is_visible="true"
       lpeversion="1"
       weight="33.333333"
       steps="2"
       helper_size="0"
       apply_no_weight="true"
       apply_with_weight="true"
       only_selected="false" /><inkscape:path-effect
       effect="fill_between_many"
       method="bsplinespiro"
       linkedpaths="#path475,0,1"
       id="path-effect481" /><inkscape:path-effect
       effect="bspline"
       id="path-effect465-8"
       is_visible="true"
       lpeversion="1"
       weight="33.333333"
       steps="2"
       helper_size="0"
       apply_no_weight="true"
       apply_with_weight="true"
       only_selected="false" /><rect
       x="343.51959"
       y="531.81921"
       width="81.426865"
       height="49.619495"
       id="rect34858-9" /><rect
       x="343.51959"
       y="531.81921"
       width="81.426865"
       height="49.619495"
       id="rect34858-0" /><inkscape:path-effect
       effect="bspline"
       id="path-effect465-8-6"
       is_visible="true"
       lpeversion="1"
       weight="33.333333"
       steps="2"
       helper_size="0"
       apply_no_weight="true"
       apply_with_weight="true"
       only_selected="false" /><linearGradient
       inkscape:collect="always"
       xlink:href="#linearGradient33181"
       id="linearGradient33183"
       x1="70.805412"
       y1="117.30848"
       x2="168.40271"
       y2="117.30848"
       gradientUnits="userSpaceOnUse"
       gradientTransform="matrix(0.23627553,0,0,0.22437111,68.994379,13.324331)" /><linearGradient
       inkscape:collect="always"
       id="linearGradient33181"><stop
         style="stop-color:#ff2a2a;stop-opacity:1;"
         offset="0"
         id="stop33177" /><stop
         style="stop-color:#ff2a2a;stop-opacity:0;"
         offset="1"
         id="stop33179" /></linearGradient><linearGradient
       inkscape:collect="always"
       xlink:href="#linearGradient33181"
       id="linearGradient33175"
       x1="138.47067"
       y1="143.66974"
       x2="169.19273"
       y2="143.33311"
       gradientUnits="userSpaceOnUse"
       gradientTransform="matrix(0.23627553,0,0,0.22587961,68.994379,13.032001)" /><linearGradient
       inkscape:collect="always"
       xlink:href="#linearGradient33181"
       id="linearGradient33283"
       gradientUnits="userSpaceOnUse"
       x1="135.10439"
       y1="143.33311"
       x2="169.19273"
       y2="143.33311"
       gradientTransform="matrix(-0.26505647,0,0,0.22953123,123.05269,12.871241)" /><linearGradient
       inkscape:collect="always"
       xlink:href="#linearGradient33181"
       id="linearGradient33167"
       x1="74.632729"
       y1="171.17107"
       x2="168.51616"
       y2="171.17107"
       gradientUnits="userSpaceOnUse"
       gradientTransform="matrix(0.23627553,0,0,0.21691678,68.994379,14.320011)" /><linearGradient
       inkscape:collect="always"
       xlink:href="#linearGradient33181"
       id="linearGradient33207"
       x1="43.338253"
       y1="171.68248"
       x2="136.83629"
       y2="172.69237"
       gradientUnits="userSpaceOnUse"
       gradientTransform="matrix(0.23627553,0,0,0.22587961,68.788759,13.032001)" /><linearGradient
       inkscape:collect="always"
       xlink:href="#linearGradient33197"
       id="linearGradient33211"
       x1="14.764465"
       y1="146.35136"
       x2="73.886497"
       y2="146.51968"
       gradientUnits="userSpaceOnUse"
       gradientTransform="matrix(0.23627553,0,0,0.22587961,68.994379,13.032001)" /><linearGradient
       inkscape:collect="always"
       id="linearGradient33197"><stop
         style="stop-color:#ba0000;stop-opacity:1;"
         offset="0"
         id="stop33193" /><stop
         style="stop-color:#ff2a2a;stop-opacity:0;"
         offset="1"
         id="stop33195" /></linearGradient><linearGradient
       inkscape:collect="always"
       xlink:href="#linearGradient33181"
       id="linearGradient33191"
       x1="60.27853"
       y1="130.69289"
       x2="135.69008"
       y2="118.45554"
       gradientUnits="userSpaceOnUse"
       gradientTransform="matrix(0.23627553,0,0,0.22437111,68.994379,13.324331)" /><rect
       x="343.51959"
       y="531.81921"
       width="81.426865"
       height="49.619495"
       id="rect34858-6" /><inkscape:path-effect
       effect="bspline"
       id="path-effect465-8-3"
       is_visible="true"
       lpeversion="1"
       weight="33.333333"
       steps="2"
       helper_size="0"
       apply_no_weight="true"
       apply_with_weight="true"
       only_selected="false" /></defs><g
     inkscape:label="Layer 1"
     inkscape:groupmode="layer"
     id="layer1"><g
       id="panel9400"><path
         style="fill:none;stroke:#000000;stroke-width:1"
         d="M 68.35 188.8 L 81.945 188.8 L 81.945 185.7 L 94.095 185.7 L 94.095 188.8 L 107.615 188.8 L 107.615 185.7 L 119.765 185.7 L 119.765 188.8 L 133.285 188.8 L 133.285 185.7 L 145.435 185.7 L 145.435 188.8 L 158.955 188.8 L 158.955 185.7 L 171.105 185.7 L 171.105 188.8 L 184.7 188.8"
         id="path138" /><path
         style="fill:none;stroke:#000000;stroke-width:1"
         d="M 184.7 188.8 L 184.7 199.892 L 181.6 199.892 L 181.6 211.742 L 184.7 211.742 L 184.7 226.008 L 181.6 226.008 L 181.6 237.858 L 184.7 237.858 L 184.7 248.95"
         id="path140" /><path
         style="fill:none;stroke:#000000;stroke-width:1"
         d="M 184.7 248.95 L 171.105 248.95 L 171.105 252.05 L 158.955 252.05 L 158.955 248.95 L 145.435 248.95 L 145.435 252.05 L 133.285 252.05 L 133.285 248.95 L 119.765 248.95 L 119.765 252.05 L 107.615 252.05 L 107.615 248.95 L 94.095 248.95 L 94.095 252.05 L 81.945 252.05 L 81.945 248.95 L 68.35 248.95"
         id="path142" /><path
         style="fill:none;stroke:#000000;stroke-width:1"
         d="M 68.35 248.95 L 68.35 237.858 L 71.45 237.858 L 71.45 226.008 L 68.35 226.008 L 68.35 211.742 L 71.45 211.742 L 71.45 199.892 L 68.35 199.892 L 68.35 188.8"
         id="path144" /></g><g
       id="panel4575"><path
         style="fill:none;stroke:#000000;stroke-width:1"
         d="M 4.1 71.45 L 15.0417 71.45 L 15.0417 68.35 L 27.1917 68.35 L 27.1917 71.45 L 41.1583 71.45 L 41.1583 68.35 L 53.3083 68.35 L 53.3083 71.45 L 64.25 71.45"
         id="path147" /><path
         style="fill:none;stroke:#000000;stroke-width:1"
         d="M 64.25 71.45 L 64.25 81.945 L 67.35 81.945 L 67.35 94.095 L 64.25 94.095 L 64.25 107.615 L 67.35 107.615 L 67.35 119.765 L 64.25 119.765 L 64.25 133.285 L 67.35 133.285 L 67.35 145.435 L 64.25 145.435 L 64.25 158.955 L 67.35 158.955 L 67.35 171.105 L 64.25 171.105 L 64.25 181.6"
         id="path149" /><path
         style="fill:none;stroke:#000000;stroke-width:1"
         d="M 64.25 181.6 L 53.3083 181.6 L 53.3083 184.7 L 41.1583 184.7 L 41.1583 181.6 L 27.1917 181.6 L 27.1917 184.7 L 15.0417 184.7 L 15.0417 181.6 L 4.1 181.6"
         id="path151" /><path
         style="fill:none;stroke:#000000;stroke-width:1"
         d="M 4.1 181.6 L 4.1 171.105 L 1 171.105 L 1 158.955 L 4.1 158.955 L 4.1 145.435 L 1 145.435 L 1 133.285 L 4.1 133.285 L 4.1 119.765 L 1 119.765 L 1 107.615 L 4.1 107.615 L 4.1 94.095 L 1 94.095 L 1 81.945 L 4.1 81.945 L 4.1 71.45"
         id="path153" /></g><g
       id="panel442"><path
         style="fill:none;stroke:#000000;stroke-width:1"
         d="M 68.35 68.35 L 82.095 68.35 L 82.095 71.45 L 93.945 71.45 L 93.945 68.35 L 107.765 68.35 L 107.765 71.45 L 119.615 71.45 L 119.615 68.35 L 133.435 68.35 L 133.435 71.45 L 145.285 71.45 L 145.285 68.35 L 159.105 68.35 L 159.105 71.45 L 170.955 71.45 L 170.955 68.35 L 184.7 68.35"
         id="path156" /><path
         style="fill:none;stroke:#000000;stroke-width:1"
         d="M 184.7 68.35 L 184.7 82.095 L 181.6 82.095 L 181.6 93.945 L 184.7 93.945 L 184.7 107.765 L 181.6 107.765 L 181.6 119.615 L 184.7 119.615 L 184.7 133.435 L 181.6 133.435 L 181.6 145.285 L 184.7 145.285 L 184.7 159.105 L 181.6 159.105 L 181.6 170.955 L 184.7 170.955 L 184.7 184.7"
         id="path158" /><path
         style="fill:none;stroke:#000000;stroke-width:1"
         d="M 184.7 184.7 L 170.955 184.7 L 170.955 181.6 L 159.105 181.6 L 159.105 184.7 L 145.285 184.7 L 145.285 181.6 L 133.435 181.6 L 133.435 184.7 L 119.615 184.7 L 119.615 181.6 L 107.765 181.6 L 107.765 184.7 L 93.945 184.7 L 93.945 181.6 L 82.095 181.6 L 82.095 184.7 L 68.35 184.7"
         id="path160" /><path
         style="fill:none;stroke:#000000;stroke-width:1"
         d="M 68.35 184.7 L 68.35 170.955 L 71.45 170.955 L 71.45 159.105 L 68.35 159.105 L 68.35 145.285 L 71.45 145.285 L 71.45 133.435 L 68.35 133.435 L 68.35 119.615 L 71.45 119.615 L 71.45 107.765 L 68.35 107.765 L 68.35 93.945 L 71.45 93.945 L 71.45 82.095 L 68.35 82.095 L 68.35 68.35"
         id="path162" /></g><g
       id="panel5185"><path
         style="fill:none;stroke:#000000;stroke-width:1"
         d="M 188.8 71.45 L 199.742 71.45 L 199.742 68.35 L 211.892 68.35 L 211.892 71.45 L 225.858 71.45 L 225.858 68.35 L 238.008 68.35 L 238.008 71.45 L 248.95 71.45"
         id="path165" /><path
         style="fill:none;stroke:#000000;stroke-width:1"
         d="M 248.95 71.45 L 248.95 81.945 L 252.05 81.945 L 252.05 94.095 L 248.95 94.095 L 248.95 107.615 L 252.05 107.615 L 252.05 119.765 L 248.95 119.765 L 248.95 133.285 L 252.05 133.285 L 252.05 145.435 L 248.95 145.435 L 248.95 158.955 L 252.05 158.955 L 252.05 171.105 L 248.95 171.105 L 248.95 181.6"
         id="path167" /><path
         style="fill:none;stroke:#000000;stroke-width:1"
         d="M 248.95 181.6 L 238.008 181.6 L 238.008 184.7 L 225.858 184.7 L 225.858 181.6 L 211.892 181.6 L 211.892 184.7 L 199.742 184.7 L 199.742 181.6 L 188.8 181.6"
         id="path169" /><path
         style="fill:none;stroke:#000000;stroke-width:1"
         d="M 188.8 181.6 L 188.8 171.105 L 185.7 171.105 L 185.7 158.955 L 188.8 158.955 L 188.8 145.435 L 185.7 145.435 L 185.7 133.285 L 188.8 133.285 L 188.8 119.765 L 185.7 119.765 L 185.7 107.615 L 188.8 107.615 L 188.8 94.095 L 185.7 94.095 L 185.7 81.945 L 188.8 81.945 L 188.8 71.45"
         id="path171" /></g><g
       id="panel5641"><path
         style="fill:none;stroke:#000000;stroke-width:1"
         d="M 253.05 68.35 L 266.795 68.35 L 266.795 71.45 L 278.645 71.45 L 278.645 68.35 L 292.465 68.35 L 292.465 71.45 L 304.315 71.45 L 304.315 68.35 L 318.135 68.35 L 318.135 71.45 L 329.985 71.45 L 329.985 68.35 L 343.805 68.35 L 343.805 71.45 L 355.655 71.45 L 355.655 68.35 L 369.4 68.35"
         id="path174" /><path
         style="fill:none;stroke:#000000;stroke-width:1"
         d="m 369.4,68.35 v 13.745 h -3.1 v 11.85 h 7.33333 c 2.98792,4.457271 4.18608,9.00403 0,13.82 H 366.3 v 11.85 h 3.1 v 13.82 h -3.1 v 11.85 h 7.33333 c 3.68883,5.17423 3.16502,9.72776 0,13.82 H 366.3 v 11.85 h 3.1 V 184.7"
         id="path176"
         sodipodi:nodetypes="cccccccccccccccccc" /><path
         style="fill:none;stroke:#000000;stroke-width:1"
         d="M 369.4 184.7 L 355.655 184.7 L 355.655 181.6 L 343.805 181.6 L 343.805 184.7 L 329.985 184.7 L 329.985 181.6 L 318.135 181.6 L 318.135 184.7 L 304.315 184.7 L 304.315 181.6 L 292.465 181.6 L 292.465 184.7 L 278.645 184.7 L 278.645 181.6 L 266.795 181.6 L 266.795 184.7 L 253.05 184.7"
         id="path178" /><path
         style="fill:none;stroke:#000000;stroke-width:1"
         d="M 253.05 184.7 L 253.05 170.955 L 256.15 170.955 L 256.15 159.105 L 253.05 159.105 L 253.05 145.285 L 256.15 145.285 L 256.15 133.435 L 253.05 133.435 L 253.05 119.615 L 256.15 119.615 L 256.15 107.765 L 253.05 107.765 L 253.05 93.945 L 256.15 93.945 L 256.15 82.095 L 253.05 82.095 L 253.05 68.35"
         id="path180" /></g><g
       id="panel6891"><path
         style="fill:none;stroke:#000000;stroke-width:1"
         d="M 68.35 4.1 L 81.945 4.1 L 81.945 1 L 94.095 1 L 94.095 4.1 L 107.615 4.1 L 107.615 1 L 119.765 1 L 119.765 4.1 L 133.285 4.1 L 133.285 1 L 145.435 1 L 145.435 4.1 L 158.955 4.1 L 158.955 1 L 171.105 1 L 171.105 4.1 L 184.7 4.1"
         id="path183" /><path
         style="fill:none;stroke:#000000;stroke-width:1"
         d="M 184.7 4.1 L 184.7 15.1917 L 181.6 15.1917 L 181.6 27.0417 L 184.7 27.0417 L 184.7 41.3083 L 181.6 41.3083 L 181.6 53.1583 L 184.7 53.1583 L 184.7 64.25"
         id="path185" /><path
         style="fill:none;stroke:#000000;stroke-width:1"
         d="M 184.7 64.25 L 171.105 64.25 L 171.105 67.35 L 158.955 67.35 L 158.955 64.25 L 145.435 64.25 L 145.435 67.35 L 133.285 67.35 L 133.285 64.25 L 119.765 64.25 L 119.765 67.35 L 107.615 67.35 L 107.615 64.25 L 94.095 64.25 L 94.095 67.35 L 81.945 67.35 L 81.945 64.25 L 68.35 64.25"
         id="path187" /><path
         style="fill:none;stroke:#000000;stroke-width:1"
         d="M 68.35 64.25 L 68.35 53.1583 L 71.45 53.1583 L 71.45 41.3083 L 68.35 41.3083 L 68.35 27.0417 L 71.45 27.0417 L 71.45 15.1917 L 68.35 15.1917 L 68.35 4.1"
         id="path189" /></g><circle
       style="fill:none;stroke:#ffffff;stroke-width:1;stroke-dasharray:none"
       id="path476-6"
       cx="330.43298"
       cy="147.68504"
       r="12.02495" /><circle
       style="opacity:0.99;fill:none;stroke:#ececec;stroke-width:1;stroke-dasharray:none"
       id="path476-6-3"
       cx="287.0415"
       cy="147.68504"
       r="12.02495" /><circle
       style="fill:none;stroke:#ffffff;stroke-width:1;stroke-dasharray:none"
       id="path476-6-9"
       cx="287.10657"
       cy="108.19588"
       r="12.019231" /><circle
       style="fill:none;stroke:#ffffff;stroke-width:1;stroke-dasharray:none"
       id="path476-6-0"
       cx="330.56314"
       cy="108.19588"
       r="12.019231" /><rect
       style="opacity:0.99;fill:none;stroke:#ffffff;stroke-width:1;stroke-dasharray:none"
       id="rect2730"
       width="57.409794"
       height="34.828609"
       x="84.201027"
       y="16.074741"
       rx="5.8680706"
       ry="4.5927844" /><rect
       style="opacity:0.99;fill:none;stroke:#ff0000;stroke-width:0.276861;stroke-dasharray:none"
       id="rect2734"
       width="19.096529"
       height="11.723139"
       x="84.138428"
       y="15.713172"
       rx="0" /><ellipse
       style="opacity:0.99;fill:none;stroke:#f30c0c;stroke-width:0.27572005;stroke-dasharray:none"
       id="path3256"
       cx="137.62598"
       cy="41.399807"
       rx="1.2624362"
       ry="1.2624357" /><ellipse
       style="opacity:0.99;fill:none;stroke:#f30c0c;stroke-width:0.27572005;stroke-dasharray:none"
       id="path3256-2"
       cx="144.11082"
       cy="37.399807"
       rx="1.2624362"
       ry="1.2624357" /><ellipse
       style="opacity:0.99;fill:none;stroke:#f30c0c;stroke-width:0.27572005;stroke-dasharray:none"
       id="path3256-22"
       cx="157.08052"
       cy="37.399807"
       rx="1.2624362"
       ry="1.2624357" /><ellipse
       style="opacity:0.99;fill:none;stroke:#f30c0c;stroke-width:0.27572005;stroke-dasharray:none"
       id="path3256-7"
       cx="164.00064"
       cy="41.399807"
       rx="1.2624362"
       ry="1.2624357" /><ellipse
       style="opacity:0.99;fill:none;stroke:#f30c0c;stroke-width:0.27572005;stroke-dasharray:none"
       id="path3256-78"
       cx="150.59567"
       cy="41.399807"
       rx="1.2624362"
       ry="1.2624357" /><ellipse
       style="opacity:0.99;fill:none;stroke:#f30c0c;stroke-width:0.27572005;stroke-dasharray:none"
       id="path3256-0"
       cx="144.11082"
       cy="45.399807"
       rx="1.2624362"
       ry="1.2624357" /><ellipse
       style="opacity:0.99;fill:none;stroke:#f30c0c;stroke-width:0.27572005;stroke-dasharray:none"
       id="path3256-3"
       cx="157.08052"
       cy="45.399807"
       rx="1.2624362"
       ry="1.2624357" /><ellipse
       style="opacity:0.99;fill:none;stroke:#f30c0c;stroke-width:0.27572005;stroke-dasharray:none"
       id="path3256-9"
       cx="170.73698"
       cy="37.399807"
       rx="1.2624362"
       ry="1.2624357" /><ellipse
       style="opacity:0.99;fill:none;stroke:#f30c0c;stroke-width:0.27572005;stroke-dasharray:none"
       id="path3256-70"
       cx="170.73698"
       cy="45.399807"
       rx="1.2624362"
       ry="1.2624357" /><ellipse
       style="opacity:0.99;fill:none;stroke:#f30c0c;stroke-width:0.27572005;stroke-dasharray:none"
       id="path3256-5"
       cx="177.47333"
       cy="41.399807"
       rx="1.2624362"
       ry="1.2624357" /><ellipse
       style="opacity:0.99;fill:none;stroke:#f30c0c;stroke-width:0.27572005;stroke-dasharray:none"
       id="path3256-29"
       cx="164.00064"
       cy="49.946522"
       rx="1.2624362"
       ry="1.2624357" /><ellipse
       style="opacity:0.99;fill:none;stroke:#f30c0c;stroke-width:0.27572005;stroke-dasharray:none"
       id="path3256-76"
       cx="150.59567"
       cy="49.563789"
       rx="1.2624362"
       ry="1.2624357" /><ellipse
       style="opacity:0.99;fill:none;stroke:#f30c0c;stroke-width:0.27572005;stroke-dasharray:none"
       id="path3256-21"
       cx="137.62598"
       cy="49.946522"
       rx="1.2624362"
       ry="1.2624357" /><ellipse
       style="opacity:0.99;fill:none;stroke:#f30c0c;stroke-width:0.27572005;stroke-dasharray:none"
       id="path3256-54"
       cx="137.62598"
       cy="-32.436535"
       rx="1.2624362"
       ry="1.2624357"
       transform="scale(1,-1)" /><ellipse
       style="opacity:0.99;fill:none;stroke:#f30c0c;stroke-width:0.27572005;stroke-dasharray:none"
       id="path3256-51"
       cx="150.59567"
       cy="32.245167"
       rx="1.2624362"
       ry="1.2624357" /><ellipse
       style="opacity:0.99;fill:none;stroke:#f30c0c;stroke-width:0.27572005;stroke-dasharray:none"
       id="path3256-08"
       cx="164.0345"
       cy="32.245167"
       rx="1.2624362"
       ry="1.2624357" /><ellipse
       style="opacity:0.99;fill:none;stroke:#f30c0c;stroke-width:0.27572005;stroke-dasharray:none"
       id="path3256-79"
       cx="177.47333"
       cy="32.245167"
       rx="1.2624362"
       ry="1.2624357" /><ellipse
       style="opacity:0.99;fill:none;stroke:#f30c0c;stroke-width:0.27572005;stroke-dasharray:none"
       id="path3256-20"
       cx="177.47333"
       cy="49.946522"
       rx="1.2624362"
       ry="1.2624357" /><g
       aria-label="BL"
       transform="matrix(0.26456933,-0.00272156,0.00272156,0.26456933,7.9013255,0.61397556)"
       id="text5496"
       style="font-style:italic;font-size:64px;-inkscape-font-specification:'sans-serif, Italic';white-space:pre;shape-inside:url(#rect5498);opacity:0.99;fill:none;stroke:#f30c0c;stroke-width:1.04209"><path
         d="m 1001.9062,678.37547 q -3.0312,2.03125 -6.3437,2.90625 -3.3125,0.84375 -8.15625,0.84375 H 970.3125 l 10.71875,-46.53125 h 13.375 q 5.09375,0 7.56245,0.34375 2.5,0.34375 4.5625,1.59375 1.7188,1.0625 2.5625,2.71875 0.875,1.625 0.875,3.625 0,4.03125 -2.2812,7.125 -2.2813,3.09375 -6.3125,4.78125 v 0.25 q 3.75,0.84375 5.7187,3.15625 2,2.3125 2,5.9375 0,3.96875 -2,7.53125 -1.9687,3.53125 -5.1875,5.71875 z m 1.3438,-32.78125 q 0,-1.3125 -0.4375,-2.15625 -0.4375,-0.875 -1.25,-1.4375 -1.3125,-0.875 -3.28125,-1.09375 -1.96875,-0.25 -5.09375,-0.25 h -7.0625 l -3.1875,13.8125 h 8.125 q 2.6875,0 4.6875,-0.375 2,-0.40625 3.5,-1.25 1.9375,-1.125 2.9687,-3.1875 1.0313,-2.09375 1.0313,-4.0625 z m -0.6875,19.96875 q 0,-1.75 -0.5938,-2.8125 -0.5937,-1.09375 -2.12495,-2.03125 -1.25,-0.78125 -3.21875,-1.03125 -1.9375,-0.25 -5.40625,-0.25 h -9.40625 l -4.09375,17.625 H 986.25 q 4.15625,0 6.75,-0.4375 2.625,-0.46875 4.53125,-1.625 2.46875,-1.46875 3.74995,-4 1.2813,-2.5625 1.2813,-5.4375 z"
         style="fill:#000000;stroke:none"
         id="path6803" /><path
         d="m 1043.6563,682.12547 h -29.4688 l 10.75,-46.53125 h 6.25 l -9.5313,41.25 h 23.2188 z"
         style="fill:#000000;stroke:none"
         id="path6805" /></g><path
       style="fill:#00cf46;fill-opacity:1;stroke-width:0.0609192"
       d="M 107.60807,42.521471 87.442129,53.942711"
       id="path457" /><path
       style="fill:url(#linearGradient33183);fill-opacity:1;stroke-width:0.0645429"
       d="m 86.243509,34.127511 c 23.343201,11.89828 22.540151,11.74302 22.540151,11.74302 l -7.71759,-11.78375 z"
       id="path29149"
       sodipodi:nodetypes="cccc" /><path
       style="fill:url(#linearGradient33175);fill-opacity:1;stroke-width:0.0611236"
       d="m 101.04178,33.880721 0.74906,23.44504 7.24923,-11.67521 z"
       id="path29270"
       sodipodi:nodetypes="cccc" /><path
       style="fill:url(#linearGradient33283);fill-opacity:1;stroke-width:0.0652603"
       d="m 86.251249,33.882511 0.22651,23.56151 -8.18474,-11.01643 z"
       id="path29270-6"
       sodipodi:nodetypes="cccc" /><path
       style="fill:url(#linearGradient33167);fill-opacity:1;stroke-width:0.0598989"
       d="m 108.81063,45.491861 -22.182361,11.91604 15.122241,-0.18483 z"
       id="path29272"
       sodipodi:nodetypes="cccc" /><path
       style="fill:url(#linearGradient33207);fill-opacity:1;stroke-width:0.0611236"
       d="m 101.88752,57.016881 -23.845301,-10.5848 8.37218,10.95062 z"
       id="path29274"
       sodipodi:nodetypes="cccc" /><path
       style="fill:url(#linearGradient33211);fill-opacity:1;stroke-width:0.0616607"
       d="m 86.397429,57.425121 -8.14741,-10.9925 7.75246,-12.3423 z"
       id="path29276"
       sodipodi:nodetypes="cccc" /><path
       style="fill:url(#linearGradient33191);fill-opacity:1;stroke-width:0.0609803"
       d="m 78.248729,46.502991 7.96458,-12.36486 14.713421,0.006 z"
       id="path29278"
       sodipodi:nodetypes="cccc" /><g
       aria-label="BL"
       transform="matrix(0.57748187,0,0,0.5874464,-108.82857,-270.58147)"
       id="text34856"
       style="white-space:pre;shape-inside:url(#rect34858-6);fill:#ff2a2a;stroke-width:1.00913"><path
         d="m 351.27148,540.08273 q 0,0.65039 -0.24609,1.14844 -0.24609,0.49804 -0.66211,0.82031 -0.49219,0.38672 -1.08398,0.55078 -0.58594,0.16406 -1.49414,0.16406 h -3.09375 v -8.72461 h 2.58398 q 0.95508,0 1.42969,0.0703 0.47461,0.0703 0.9082,0.29297 0.48047,0.25195 0.69727,0.65039 0.21679,0.39257 0.21679,0.94336 0,0.62109 -0.3164,1.06054 -0.31641,0.4336 -0.84375,0.69727 v 0.0469 q 0.88476,0.18164 1.39453,0.7793 0.50976,0.5918 0.50976,1.5 z m -1.95117,-3.93164 q 0,-0.31641 -0.10547,-0.5332 -0.10547,-0.2168 -0.33984,-0.35157 -0.27539,-0.1582 -0.66797,-0.19336 -0.39258,-0.041 -0.97266,-0.041 h -1.38281 v 2.51953 h 1.5 q 0.54492,0 0.86719,-0.0527 0.32227,-0.0586 0.59766,-0.23438 0.27539,-0.17578 0.38671,-0.45117 0.11719,-0.28125 0.11719,-0.66211 z m 0.74414,3.97851 q 0,-0.52734 -0.1582,-0.83789 -0.1582,-0.31054 -0.57422,-0.52734 -0.28125,-0.14648 -0.68555,-0.1875 -0.39843,-0.0469 -0.97265,-0.0469 h -1.82227 v 3.24609 h 1.53516 q 0.76172,0 1.24805,-0.0762 0.48632,-0.082 0.79687,-0.29297 0.32813,-0.22852 0.48047,-0.52149 0.15234,-0.29296 0.15234,-0.75586 z"
         style="fill:#cd0000;fill-opacity:0.59322"
         id="path6798" /><path
         d="m 358.4375,542.76632 h -5.51953 v -8.72461 h 1.16015 v 7.69336 h 4.35938 z"
         style="fill:#cd0000;fill-opacity:0.59322"
         id="path6800" /></g><ellipse
       id="path441-3"
       style="fill:#ffdd55;stroke:#000000;stroke-width:0.0539122"
       cx="82.318787"
       cy="56.76799"
       rx="0.012045212"
       ry="0.0089583229" /><ellipse
       id="path443-2"
       style="fill:#ffdd55;stroke:#000000;stroke-width:0.0539122"
       cx="95.883347"
       cy="56.498962"
       rx="0.012045212"
       ry="0.0089583229" /><path
       style="fill:#ffdd55;stroke-width:0.0539122"
       d="m 82.228369,56.498971 c 0,0 13.7454,0 13.7454,0"
       id="path463-4"
       inkscape:path-effect="#path-effect465-8-3"
       inkscape:original-d="m 82.228369,56.498971 h 13.7454" /></g></svg>
